/vscmnt/brussel_pixiu_data/_data_brussel/112/vsc11236/PredSimResults/SUBJ10opt3D/weighted-LRposFixed/expIG/worker_02.mot
version=1
nRows=11
nColumns=50
inDegrees=yes
endheader
                time	         pelvis_tilt	         pelvis_list	     pelvis_rotation	           pelvis_tx	           pelvis_ty	           pelvis_tz	       hip_flexion_r	     hip_adduction_r	      hip_rotation_r	        knee_angle_r	       ankle_angle_r	         mtp_angle_r	       hip_flexion_l	     hip_adduction_l	      hip_rotation_l	        knee_angle_l	       ankle_angle_l	         mtp_angle_l	    lumbar_extension	      lumbar_bending	     lumbar_rotation	 ercspn_r/activation	 intobl_r/activation	 extobl_r/activation	    abd_r/activation	    add_r/activation	hamstrings_r/activation	bifemsh_r/activation	glut_max_r/activation	iliopsoas_r/activation	rect_fem_r/activation	  vasti_r/activation	gastroc_r/activation	 soleus_r/activation	tib_ant_r/activation	 ercspn_l/activation	 intobl_l/activation	 extobl_l/activation	    abd_l/activation	    add_l/activation	hamstrings_l/activation	bifemsh_l/activation	glut_max_l/activation	iliopsoas_l/activation	rect_fem_l/activation	  vasti_l/activation	gastroc_l/activation	 soleus_l/activation	tib_ant_l/activation	
          1.15135635	         -4.18365166	         -0.90283869	          6.77754276	          1.30103268	          0.82295615	         -0.01288391	         30.59916878	         -1.44541586	         -5.70127523	         -7.72761692	          2.99603181	          0.26308080	        -15.57886806	         -0.63026200	         -0.46843258	         -6.48305319	          8.69112269	         26.62556903	         -6.31287767	         -0.47396429	         -6.88334812	          0.10776470	          0.14795339	          0.01000002	          0.00999999	          0.20709197	          0.11065068	          0.19771188	          0.05624196	          0.09796745	          0.01000009	          0.01000000	          0.01714007	          0.01324884	          0.28931557	          0.09519607	          0.00999999	          0.01000000	          0.05710341	          0.01000006	          0.01130705	          0.21328168	          0.01552828	          0.42333840	          0.01000008	          0.01000000	          0.31318728	          0.25785449	          0.02291697	
          1.16286992	         -4.21987028	         -0.88648620	          6.88203838	          1.31659892	          0.82157885	         -0.01254818	         30.47127168	         -1.31829514	         -5.34260749	         -9.34441256	          2.64814753	          0.24924828	        -15.60930637	         -0.76936829	         -0.78823236	         -8.29965596	          8.04491876	         28.31491275	         -6.07373278	          0.01463062	         -7.20982337	          0.09041477	          0.12413315	          0.01000001	          0.01000007	          0.17375052	          0.09576311	          0.16588064	          0.10147523	          0.08219486	          0.01000000	          0.00999999	          0.01438055	          0.01111580	          0.35783240	          0.11150853	          0.00999999	          0.01000001	          0.04790985	          0.01719869	          0.01955249	          0.17894370	          0.01302826	          0.35518164	          0.01000001	          0.01000000	          0.27558895	          0.24684293	          0.01922738	
          1.17438348	         -4.24711219	         -0.88720994	          6.94778636	          1.33240569	          0.82049975	         -0.01208513	         30.18096219	         -1.18061737	         -5.04466037	        -10.68289328	          2.18378109	          0.24031930	        -15.48789334	         -0.93994812	         -1.13301807	        -10.40495147	          7.22763745	         29.97062680	         -5.81778726	          0.51760382	         -7.50556242	          0.10369220	          0.10414792	          0.01000001	          0.05498611	          0.16970971	          0.08328677	          0.13917415	          0.11498422	          0.06896162	          0.01000000	          0.01000000	          0.01206531	          0.00999999	          0.41529777	          0.12399617	          0.00999999	          0.01000000	          0.04019645	          0.01442975	          0.01640496	          0.15013407	          0.01093074	          0.29799800	          0.01000003	          0.01000000	          0.23121960	          0.23008996	          0.01613180	
          1.18589705	         -4.26612747	         -0.88494353	          6.97472268	          1.34825061	          0.81982070	         -0.01150162	         29.83419096	         -1.04330490	         -4.85329175	        -11.93477782	          1.71875679	          0.22717109	        -15.16593654	         -1.12096094	         -1.50496422	        -12.85158118	          6.22526324	         31.49588635	         -5.56815783	          1.01224673	         -7.76537258	          0.10675949	          0.08738028	          0.01000001	          0.09455570	          0.20820361	          0.07150514	          0.11676736	          0.11965600	          0.05785892	          0.01000001	          0.01000003	          0.01012282	          0.01000000	          0.44755069	          0.15055126	          0.00999999	          0.01000000	          0.03372489	          0.01210669	          0.01770975	          0.12596275	          0.01000007	          0.25002083	          0.01000002	          0.01000000	          0.19399363	          0.21107025	          0.01353461	
          1.19741061	         -4.27700478	         -0.88221935	          6.96656961	          1.36398917	          0.81960849	         -0.01081206	         29.49772090	         -0.90628128	         -4.74946683	        -13.22630048	          1.38977169	          0.21409663	        -14.60903355	         -1.31739448	         -1.90767137	        -15.67181163	          5.05738769	         32.72517240	         -5.33625947	          1.50014783	         -7.98806143	          0.10564674	          0.07331221	          0.01000001	          0.12357859	          0.23259731	          0.06695443	          0.09796802	          0.11945508	          0.04854373	          0.01000001	          0.04088364	          0.01000000	          0.01000000	          0.46251429	          0.17409022	          0.00999999	          0.01000000	          0.02829524	          0.06880441	          0.02886362	          0.10568297	          0.01000001	          0.20976790	          0.01000001	          0.00999999	          0.16276098	          0.18158280	          0.01135556	
          1.20892417	         -4.28135793	         -0.87705513	          6.92439776	          1.37950931	          0.81994614	         -0.01004187	         29.15810904	         -0.77072015	         -4.71065773	        -14.52091883	          1.25713753	          0.19922024	        -13.78764346	         -1.52819760	         -2.36283036	        -18.88670230	          3.75269106	         33.42921450	         -5.12939212	          1.97855954	         -8.17247458	          0.10024388	          0.06150906	          0.01000001	          0.14016308	          0.25016911	          0.06660233	          0.08219534	          0.10909200	          0.04072827	          0.01000000	          0.08140634	          0.01000000	          0.01000000	          0.45688852	          0.18811027	          0.01000000	          0.01000000	          0.02373975	          0.14242911	          0.03580473	          0.08866820	          0.01000000	          0.17599562	          0.01000000	          0.00999999	          0.13655674	          0.15234827	          0.01000000	
          1.22043774	         -4.28127638	         -0.86409701	          6.84856017	          1.39474278	          0.82088172	         -0.00921978	         28.76126443	         -0.63514697	         -4.70401938	        -15.72169512	          1.38127895	          0.18875263	        -12.68363459	         -1.75405397	         -2.88695666	        -22.50323204	          2.33387532	         33.39383853	         -4.95143000	          2.44209581	         -8.31750908	          0.09509378	          0.05160621	          0.01000001	          0.14942696	          0.25631018	          0.06865611	          0.06896204	          0.09586676	          0.03417109	          0.01000000	          0.10942841	          0.01000000	          0.01000000	          0.42098782	          0.19227269	          0.01000000	          0.01000000	          0.01991769	          0.20255350	          0.03818203	          0.07439279	          0.01000000	          0.14766063	          0.01000000	          0.00999999	          0.11457133	          0.12782046	          0.00999999	
          1.23195130	         -4.27867271	         -0.83626949	          6.73883470	          1.40965169	          0.82240097	         -0.00837299	         28.25730590	         -0.49895065	         -4.69029980	        -16.73478289	          1.77386592	          0.20210758	        -11.30247377	         -1.99597491	         -3.46709880	        -26.45702089	          0.68190664	         32.65419566	         -4.80481790	          2.88446765	         -8.42151133	          0.08210707	          0.04329770	          0.01000001	          0.15091896	          0.24697580	          0.07081462	          0.05785928	          0.08043241	          0.02866960	          0.01000000	          0.14294808	          0.01000001	          0.01000000	          0.36605431	          0.19282208	          0.01000000	          0.01000000	          0.01671098	          0.26978062	          0.04699828	          0.06241572	          0.01000000	          0.12388752	          0.01000000	          0.00999999	          0.09612554	          0.10724158	          0.00999999	
          1.24346486	         -4.27564917	         -0.78391549	          6.59305131	          1.42420023	          0.82446443	         -0.00752485	         27.59893849	         -0.36492199	         -4.63734203	        -17.45532287	          2.35784769	          0.27001390	         -9.66965371	         -2.24782782	         -4.07395851	        -30.63179732	         -1.32745159	         31.28041638	         -4.69424554	          3.29651307	         -8.48274860	          0.06888802	          0.03632684	          0.01000001	          0.14555551	          0.21078468	          0.07371205	          0.04854404	          0.06748294	          0.02405384	          0.01000000	          0.15975560	          0.01000000	          0.01000000	          0.31109616	          0.18496800	          0.01000000	          0.01000001	          0.01402054	          0.30903910	          0.04906420	          0.05236710	          0.01000000	          0.10394184	          0.01000000	          0.00999999	          0.08064949	          0.08997587	          0.00999999	
          1.25497843	         -4.27372179	         -0.69671369	          6.40958618	          1.43835394	          0.82699102	         -0.00669135	         26.77853694	         -0.24362991	         -4.53166386	        -17.84553722	          3.00656364	          0.38579441	         -7.82713259	         -2.49747328	         -4.66095570	        -34.88313372	         -3.77582035	         29.34789153	         -4.62638472	          3.66733457	         -8.49935779	          0.05779718	          0.03047828	          0.01000001	          0.13880650	          0.17684873	          0.07993584	          0.04072854	          0.05661831	          0.02018122	          0.01000000	          0.15459291	          0.01000001	          0.01000000	          0.26605209	          0.18967310	          0.02344575	          0.01000000	          0.01176326	          0.26483229	          0.09377851	          0.05786508	          0.01000009	          0.08720738	          0.01000000	          0.00999999	          0.06766506	          0.07548990	          0.01000005	
          1.26649199	         -4.27249268	         -0.57223234	          6.19503036	          1.45209729	          0.82983203	         -0.00586573	         25.82826376	         -0.14494557	         -4.37952675	        -17.94935844	          3.63559443	          0.53417580	         -5.82576462	         -2.73521733	         -5.17524288	        -39.12415959	         -6.29781789	         26.54836549	         -4.60522308	          3.98622178	         -8.47244465	          0.04849194	          0.02557133	          0.01000001	          0.13637424	          0.14837639	          0.07834259	          0.03417132	          0.05312508	          0.01693208	          0.01000000	          0.15405951	          0.01000000	          0.01000000	          0.23830961	          0.20483944	          0.05680239	          0.01000004	          0.01000001	          0.22219474	          0.08217344	          0.07900764	          0.01191886	          0.07316714	          0.01000000	          0.00999999	          0.05677110	          0.06333616	          0.12809144	
